<svg xmlns="http://www.w3.org/2000/svg" xmlns:xlink="http://www.w3.org/1999/xlink" fill="none" version="1.1" width="41.666664123535156" height="33.33333206176758" viewBox="0 0 41.666664123535156 33.33333206176758"><g><path d="M40.7146,5.20417Q41.6667,8.91667,41.6667,16.6667Q41.6667,24.4167,40.7146,28.1292C40.1854,30.1812,38.6375,31.7958,36.6771,32.3417Q33.1167,33.3333,20.8333,33.3333Q8.55625,33.3333,4.98958,32.3417C3.02083,31.7875,1.475,30.175,0.952083,28.1292Q0,24.4167,0,16.6667Q0,8.91667,0.952083,5.20417C1.48125,3.15208,3.02917,1.5375,4.98958,0.991666Q8.55625,0,20.8333,0Q33.1167,0,36.6771,0.991666C38.6458,1.54583,40.1917,3.15833,40.7146,5.20417ZM16.6667,23.9583L29.1667,16.6667L16.6667,9.375L16.6667,23.9583Z" fill="#FF0900" fill-opacity="1"/></g></svg>