<svg xmlns="http://www.w3.org/2000/svg" xmlns:xlink="http://www.w3.org/1999/xlink" fill="none" version="1.1" width="41.666664123535156" height="41.414581298828125" viewBox="0 0 41.666664123535156 41.414581298828125"><g><path d="M20.8333,0C9.32708,0,0,9.32708,0,20.8333C0,31.2313,7.61875,39.85,17.5792,41.4146L17.5792,26.8542L12.2875,26.8542L12.2875,20.8333L17.5792,20.8333L17.5792,16.2437C17.5792,11.0229,20.6875,8.13958,25.4479,8.13958Q27.7271,8.13958,30.1104,8.54583L30.1104,13.6708L27.4854,13.6708C24.8958,13.6708,24.0896,15.2771,24.0896,16.925L24.0896,20.8333L29.8667,20.8333L28.9437,26.8542L24.0896,26.8542L24.0896,41.4146C34.0479,39.8521,41.6667,31.2292,41.6667,20.8333C41.6667,9.32708,32.3396,0,20.8333,0Z" fill="#365FF2" fill-opacity="1"/></g></svg>